<svg xmlns="http://www.w3.org/2000/svg" version="1.1" xmlns:xlink="http://www.w3.org/1999/xlink" xmlns:svgjs="http://svgjs.dev/svgjs" viewBox="0 0 800 800"><defs><linearGradient x1="50%" y1="0%" x2="50%" y2="100%" id="ffflurry-grad" gradientTransform="rotate(270)"><stop stop-color="hsl(238, 82%, 13%)" stop-opacity="1" offset="0%"></stop><stop stop-color="hsl(162, 100%, 58%)" stop-opacity="1" offset="45%"></stop><stop stop-color="hsl(270, 73%, 53%)" stop-opacity="1" offset="100%"></stop></linearGradient></defs><rect width="100%" height="100%" fill="hsl(238, 82%, 13%)"></rect><g fill="url(#ffflurry-grad)"><rect width="237" height="1" x="613.5" y="159.5" rx="0.5" transform="rotate(42, 732, 160)" opacity="0.68"></rect><rect width="145" height="1" x="614.5" y="746.5" rx="0.5" transform="rotate(42, 687, 747)" opacity="0.23"></rect><rect width="91" height="1" x="405.5" y="455.5" rx="0.5" transform="rotate(42, 451, 456)" opacity="0.11"></rect><rect width="220" height="1" x="144" y="347.5" rx="0.5" transform="rotate(42, 254, 348)" opacity="0.43"></rect><rect width="50" height="1" x="677" y="559.5" rx="0.5" transform="rotate(42, 702, 560)" opacity="0.83"></rect><rect width="110" height="1" x="704" y="656.5" rx="0.5" transform="rotate(42, 759, 657)" opacity="0.45"></rect><rect width="145" height="1" x="688.5" y="490.5" rx="0.5" transform="rotate(42, 761, 491)" opacity="0.39"></rect><rect width="157" height="1" x="51.5" y="497.5" rx="0.5" transform="rotate(42, 130, 498)" opacity="0.20"></rect><rect width="87" height="1" x="298.5" y="128.5" rx="0.5" transform="rotate(42, 342, 129)" opacity="0.58"></rect><rect width="102" height="1" x="466" y="738.5" rx="0.5" transform="rotate(42, 517, 739)" opacity="0.36"></rect><rect width="206" height="1" x="104" y="224.5" rx="0.5" transform="rotate(42, 207, 225)" opacity="0.43"></rect><rect width="134" height="1" x="0" y="238.5" rx="0.5" transform="rotate(42, 67, 239)" opacity="0.68"></rect><rect width="170" height="1" x="-18" y="385.5" rx="0.5" transform="rotate(42, 67, 386)" opacity="0.90"></rect><rect width="138" height="1" x="519" y="75.5" rx="0.5" transform="rotate(42, 588, 76)" opacity="0.77"></rect><rect width="105" height="1" x="216.5" y="46.5" rx="0.5" transform="rotate(42, 269, 47)" opacity="0.52"></rect><rect width="148" height="1" x="663" y="355.5" rx="0.5" transform="rotate(42, 737, 356)" opacity="0.46"></rect><rect width="165" height="1" x="368.5" y="214.5" rx="0.5" transform="rotate(42, 451, 215)" opacity="0.75"></rect><rect width="218" height="1" x="-22" y="81.5" rx="0.5" transform="rotate(42, 87, 82)" opacity="0.24"></rect><rect width="94" height="1" x="188" y="723.5" rx="0.5" transform="rotate(42, 235, 724)" opacity="0.41"></rect><rect width="84" height="1" x="243" y="554.5" rx="0.5" transform="rotate(42, 285, 555)" opacity="0.10"></rect><rect width="57" height="1" x="534.5" y="455.5" rx="0.5" transform="rotate(42, 563, 456)" opacity="0.62"></rect><rect width="99" height="1" x="580.5" y="627.5" rx="0.5" transform="rotate(42, 630, 628)" opacity="0.82"></rect><rect width="243" height="1" x="-44.5" y="677.5" rx="0.5" transform="rotate(42, 77, 678)" opacity="0.24"></rect><rect width="152" height="1" x="311" y="690.5" rx="0.5" transform="rotate(42, 387, 691)" opacity="0.42"></rect><rect width="137" height="1" x="293.5" y="393.5" rx="0.5" transform="rotate(42, 362, 394)" opacity="0.68"></rect><rect width="109" height="1" x="455.5" y="589.5" rx="0.5" transform="rotate(42, 510, 590)" opacity="0.46"></rect><rect width="176" height="1" x="504" y="304.5" rx="0.5" transform="rotate(42, 592, 305)" opacity="0.52"></rect><rect width="115" height="1" x="598.5" y="467.5" rx="0.5" transform="rotate(42, 656, 468)" opacity="0.62"></rect></g></svg>