<svg xmlns="http://www.w3.org/2000/svg" viewBox="0 0 800 800" xml:space="preserve"><path style="fill:#161616" d="M0 0h800v800H0z"/><linearGradient id="a" gradientUnits="userSpaceOnUse" x1="17.643" y1="821.15" x2="17.643" y2="820.15" gradientTransform="matrix(.6691 -.7431 -176.1253 -158.584 145257.5 130315.086)"><stop offset="0" style="stop-color:#000"/><stop offset=".45" style="stop-color:#000"/><stop offset="1" style="stop-color:#000"/></linearGradient><path d="M644.6 80.7 820 238.6c.2.2.2.5 0 .7s-.5.2-.7 0L644 81.4c-.2-.2-.2-.5 0-.7.1-.2.4-.2.6 0" style="opacity:.68;fill:url(#a)"/><linearGradient id="b" gradientUnits="userSpaceOnUse" x1="17.643" y1="821.316" x2="17.643" y2="820.316" gradientTransform="matrix(.6691 -.7431 -107.756 -97.0239 89123 80398.875)"><stop offset="0" style="stop-color:#000"/><stop offset=".45" style="stop-color:#000"/><stop offset="1" style="stop-color:#000"/></linearGradient><path d="m633.8 698.5 107 96.4c.2.2.2.5 0 .7s-.5.2-.7 0l-107-96.4c-.2-.2-.2-.5 0-.7s.5-.2.7 0" style="opacity:.23;fill:url(#b)"/><linearGradient id="c" gradientUnits="userSpaceOnUse" x1="17.643" y1="821.568" x2="17.643" y2="820.568" gradientTransform="matrix(.6691 -.7431 -67.6262 -60.8909 55964.906 50464.688)"><stop offset="0" style="stop-color:#000"/><stop offset=".45" style="stop-color:#000"/><stop offset="1" style="stop-color:#000"/></linearGradient><path d="m417.9 425.5 66.9 60.2c.2.2.2.5 0 .7s-.5.2-.7 0l-66.9-60.2c-.2-.2-.2-.5 0-.7s.5-.2.7 0" style="opacity:.11;fill:url(#c)"/><linearGradient id="d" gradientUnits="userSpaceOnUse" x1="17.643" y1="821.17" x2="17.643" y2="820.17" gradientTransform="matrix(.6691 -.7431 -163.4919 -147.2087 134415.125 121170.969)"><stop offset="0" style="stop-color:#000"/><stop offset=".45" style="stop-color:#000"/><stop offset="1" style="stop-color:#000"/></linearGradient><path d="m173 274.4 162.7 146.5c.2.2.2.5 0 .7s-.5.2-.7 0L172.3 275.1c-.2-.2-.2-.5 0-.7.1-.2.5-.2.7 0" style="opacity:.43;fill:url(#d)"/><linearGradient id="e" gradientUnits="userSpaceOnUse" x1="17.643" y1="822.125" x2="17.643" y2="821.125" gradientTransform="matrix(.6691 -.7431 -37.1572 -33.4565 31219.504 28061.824)"><stop offset="0" style="stop-color:#000"/><stop offset=".45" style="stop-color:#000"/><stop offset="1" style="stop-color:#000"/></linearGradient><path d="m684.1 543.2 36.4 32.8c.2.2.2.5 0 .7s-.5.2-.7 0L683.5 544c-.2-.2-.2-.5 0-.7.1-.2.4-.3.6-.1" style="opacity:.83;fill:url(#e)"/><linearGradient id="f" gradientUnits="userSpaceOnUse" x1="17.643" y1="821.451" x2="17.643" y2="820.451" gradientTransform="matrix(.6691 -.7431 -81.7459 -73.6044 67856.61 61095.7)"><stop offset="0" style="stop-color:#000"/><stop offset=".45" style="stop-color:#000"/><stop offset="1" style="stop-color:#000"/></linearGradient><path d="m718.8 620.2 81 72.9c.2.2.2.5 0 .7s-.5.2-.7 0l-81-72.9c-.2-.2-.2-.5 0-.7s.5-.2.7 0" style="opacity:.45;fill:url(#f)"/><linearGradient id="g" gradientUnits="userSpaceOnUse" x1="17.643" y1="821.316" x2="17.643" y2="820.316" gradientTransform="matrix(.6691 -.7431 -107.756 -97.0239 89197 80142.875)"><stop offset="0" style="stop-color:#000"/><stop offset=".45" style="stop-color:#000"/><stop offset="1" style="stop-color:#000"/></linearGradient><path d="m707.8 442.5 107 96.4c.2.2.2.5 0 .7s-.5.2-.7 0l-107-96.4c-.2-.2-.2-.5 0-.7s.5-.2.7 0" style="opacity:.39;fill:url(#g)"/><linearGradient id="h" gradientUnits="userSpaceOnUse" x1="17.643" y1="821.283" x2="17.643" y2="820.283" gradientTransform="matrix(.6691 -.7431 -116.6737 -105.0535 95882.023 86737.25)"><stop offset="0" style="stop-color:#000"/><stop offset=".45" style="stop-color:#000"/><stop offset="1" style="stop-color:#000"/></linearGradient><path d="m72.4 445.4 115.9 104.4c.2.2.2.5 0 .7s-.5.2-.7 0L71.7 446.2c-.2-.2-.2-.5 0-.7.1-.2.5-.2.7-.1" style="opacity:.2;fill:url(#h)"/><linearGradient id="i" gradientUnits="userSpaceOnUse" x1="17.643" y1="821.6" x2="17.643" y2="820.6" gradientTransform="matrix(.6691 -.7431 -64.6536 -58.2144 53417.234 47941.898)"><stop offset="0" style="stop-color:#000"/><stop offset=".45" style="stop-color:#000"/><stop offset="1" style="stop-color:#000"/></linearGradient><path d="m310.4 99.9 63.9 57.5c.2.2.2.5 0 .7s-.5.2-.7 0l-63.9-57.5c-.2-.2-.2-.5 0-.7s.5-.2.7 0" style="opacity:.58;fill:url(#i)"/><linearGradient id="j" gradientUnits="userSpaceOnUse" x1="17.643" y1="821.495" x2="17.643" y2="820.495" gradientTransform="matrix(.6691 -.7431 -75.8008 -68.2513 62737.258 56786.117)"><stop offset="0" style="stop-color:#000"/><stop offset=".45" style="stop-color:#000"/><stop offset="1" style="stop-color:#000"/></linearGradient><path d="m479.8 704.8 75.1 67.6c.2.2.2.5 0 .7s-.5.2-.7 0l-75.1-67.6c-.2-.2-.2-.5 0-.7.2-.1.5-.1.7 0" style="opacity:.36;fill:url(#j)"/><linearGradient id="k" gradientUnits="userSpaceOnUse" x1="17.643" y1="821.189" x2="17.643" y2="820.189" gradientTransform="matrix(.6691 -.7431 -153.0878 -137.8409 125832.773 113362.703)"><stop offset="0" style="stop-color:#000"/><stop offset=".45" style="stop-color:#000"/><stop offset="1" style="stop-color:#000"/></linearGradient><path d="m131.2 156 152.3 137.2c.2.2.2.5 0 .7s-.5.2-.7 0L130.5 156.8c-.2-.2-.2-.5 0-.7.1-.2.5-.2.7-.1" style="opacity:.43;fill:url(#k)"/><linearGradient id="l" gradientUnits="userSpaceOnUse" x1="17.643" y1="821.351" x2="17.643" y2="820.351" gradientTransform="matrix(.6691 -.7431 -99.5814 -89.6635 81796.648 73852.453)"><stop offset="0" style="stop-color:#000"/><stop offset=".45" style="stop-color:#000"/><stop offset="1" style="stop-color:#000"/></linearGradient><path d="m17.9 194.1 98.8 89c.2.2.2.5 0 .7s-.5.2-.7 0l-98.8-89c-.2-.2-.2-.5 0-.7.2-.1.5-.2.7 0" style="opacity:.68;fill:url(#l)"/><linearGradient id="m" gradientUnits="userSpaceOnUse" x1="17.643" y1="821.253" x2="17.643" y2="820.253" gradientTransform="matrix(.6691 -.7431 -126.3346 -113.7522 103744.71 93761.578)"><stop offset="0" style="stop-color:#000"/><stop offset=".45" style="stop-color:#000"/><stop offset="1" style="stop-color:#000"/></linearGradient><path d="m4.5 329.1 125.6 113.1c.2.2.2.5 0 .7s-.5.2-.7 0L3.9 329.8c-.2-.2-.2-.5 0-.7.1-.2.4-.2.6 0" style="opacity:.9;fill:url(#m)"/><linearGradient id="n" gradientUnits="userSpaceOnUse" x1="17.643" y1="821.337" x2="17.643" y2="820.337" gradientTransform="matrix(.6691 -.7431 -102.554 -92.34 84756.32 75885.242)"><stop offset="0" style="stop-color:#000"/><stop offset=".45" style="stop-color:#000"/><stop offset="1" style="stop-color:#000"/></linearGradient><path d="m537.4 29.8 101.8 91.7c.2.2.2.5 0 .7s-.5.2-.7 0L536.8 30.5c-.2-.2-.2-.5 0-.7.1-.2.4-.2.6 0" style="opacity:.77;fill:url(#n)"/><linearGradient id="o" gradientUnits="userSpaceOnUse" x1="17.643" y1="821.478" x2="17.643" y2="820.478" gradientTransform="matrix(.6691 -.7431 -78.0302 -70.2587 64318.266 57740.96)"><stop offset="0" style="stop-color:#000"/><stop offset=".45" style="stop-color:#000"/><stop offset="1" style="stop-color:#000"/></linearGradient><path d="M230.7 11.8 308 81.4c.2.2.2.5 0 .7s-.5.2-.7 0L230 12.6c-.2-.2-.2-.5 0-.7s.5-.3.7-.1" style="opacity:.52;fill:url(#o)"/><linearGradient id="p" gradientUnits="userSpaceOnUse" x1="17.643" y1="821.307" x2="17.643" y2="820.307" gradientTransform="matrix(.6691 -.7431 -109.9854 -99.0313 91002.008 81654.719)"><stop offset="0" style="stop-color:#000"/><stop offset=".45" style="stop-color:#000"/><stop offset="1" style="stop-color:#000"/></linearGradient><path d="M682.7 306.4 792 404.8c.2.2.2.5 0 .7s-.5.2-.7 0L682 307.2c-.2-.2-.2-.5 0-.7s.5-.2.7-.1" style="opacity:.46;fill:url(#p)"/><linearGradient id="q" gradientUnits="userSpaceOnUse" x1="17.643" y1="821.264" x2="17.643" y2="820.264" gradientTransform="matrix(.6691 -.7431 -122.6189 -110.4066 101080.367 90845.836)"><stop offset="0" style="stop-color:#000"/><stop offset=".45" style="stop-color:#000"/><stop offset="1" style="stop-color:#000"/></linearGradient><path d="m390.4 159.8 121.9 109.7c.2.2.2.5 0 .7s-.5.2-.7 0L389.7 160.5c-.2-.2-.2-.5 0-.7s.5-.2.7 0" style="opacity:.75;fill:url(#q)"/><linearGradient id="r" gradientUnits="userSpaceOnUse" x1="17.643" y1="821.173" x2="17.643" y2="820.173" gradientTransform="matrix(.6691 -.7431 -162.0056 -145.8705 133028.797 119807.078)"><stop offset="0" style="stop-color:#000"/><stop offset=".45" style="stop-color:#000"/><stop offset="1" style="stop-color:#000"/></linearGradient><path d="M6.7 9 168 154.2c.2.2.2.5 0 .7s-.5.2-.7 0L6 9.8c-.2-.2-.2-.5 0-.7s.5-.3.7-.1" style="opacity:.24;fill:url(#r)"/><linearGradient id="s" gradientUnits="userSpaceOnUse" x1="17.643" y1="821.547" x2="17.643" y2="820.547" gradientTransform="matrix(.6691 -.7431 -69.8556 -62.8983 57577.914 52379.531)"><stop offset="0" style="stop-color:#000"/><stop offset=".45" style="stop-color:#000"/><stop offset="1" style="stop-color:#000"/></linearGradient><path d="m200.8 692.5 69.1 62.2c.2.2.2.5 0 .7s-.5.2-.7 0l-69.1-62.2c-.2-.2-.2-.5 0-.7s.5-.2.7 0" style="opacity:.41;fill:url(#s)"/><linearGradient id="t" gradientUnits="userSpaceOnUse" x1="17.643" y1="821.625" x2="17.643" y2="820.625" gradientTransform="matrix(.6691 -.7431 -62.4242 -56.207 51531.227 46721.055)"><stop offset="0" style="stop-color:#000"/><stop offset=".45" style="stop-color:#000"/><stop offset="1" style="stop-color:#000"/></linearGradient><path d="m254.5 526.9 61.7 55.5c.2.2.2.5 0 .7s-.5.2-.7 0l-61.7-55.5c-.2-.2-.2-.5 0-.7s.5-.2.7 0" style="opacity:.1;fill:url(#t)"/><linearGradient id="u" gradientUnits="userSpaceOnUse" x1="17.643" y1="821.973" x2="17.643" y2="820.973" gradientTransform="matrix(.6691 -.7431 -42.3593 -38.1404 35348.184 31800.46)"><stop offset="0" style="stop-color:#000"/><stop offset=".45" style="stop-color:#000"/><stop offset="1" style="stop-color:#000"/></linearGradient><path d="m542.5 436.9 41.6 37.5c.2.2.2.5 0 .7s-.5.2-.7 0l-41.6-37.5c-.2-.2-.2-.5 0-.7s.5-.2.7 0" style="opacity:.62;fill:url(#u)"/><linearGradient id="v" gradientUnits="userSpaceOnUse" x1="17.643" y1="821.514" x2="17.643" y2="820.514" gradientTransform="matrix(.6691 -.7431 -73.5713 -66.2439 61021.254 55028.273)"><stop offset="0" style="stop-color:#000"/><stop offset=".45" style="stop-color:#000"/><stop offset="1" style="stop-color:#000"/></linearGradient><path d="m593.9 594.8 72.8 65.6c.2.2.2.5 0 .7s-.5.2-.7 0l-72.8-65.6c-.2-.2-.2-.5 0-.7.2-.1.5-.1.7 0" style="opacity:.82;fill:url(#v)"/><linearGradient id="w" gradientUnits="userSpaceOnUse" x1="17.643" y1="821.144" x2="17.643" y2="820.144" gradientTransform="matrix(.6691 -.7431 -180.5842 -162.5987 148260.5 134126.766)"><stop offset="0" style="stop-color:#000"/><stop offset=".45" style="stop-color:#000"/><stop offset="1" style="stop-color:#000"/></linearGradient><path d="m-12.6 596.7 179.8 161.9c.2.2.2.5 0 .7s-.5.2-.7 0L-13.3 597.4c-.2-.2-.2-.5 0-.7s.5-.2.7 0" style="opacity:.24;fill:url(#w)"/><linearGradient id="x" gradientUnits="userSpaceOnUse" x1="17.643" y1="821.296" x2="17.643" y2="820.296" gradientTransform="matrix(.6691 -.7431 -112.958 -101.7079 93090.68 84185.516)"><stop offset="0" style="stop-color:#000"/><stop offset=".45" style="stop-color:#000"/><stop offset="1" style="stop-color:#000"/></linearGradient><path d="m331.2 640.1 112.2 101c.2.2.2.5 0 .7s-.5.2-.7 0l-112.2-101c-.2-.2-.2-.5 0-.7s.5-.2.7 0" style="opacity:.42;fill:url(#x)"/><linearGradient id="y" gradientUnits="userSpaceOnUse" x1="17.643" y1="821.341" x2="17.643" y2="820.341" gradientTransform="matrix(.6691 -.7431 -101.8108 -91.6709 83920.656 75654.297)"><stop offset="0" style="stop-color:#000"/><stop offset=".45" style="stop-color:#000"/><stop offset="1" style="stop-color:#000"/></linearGradient><path d="m311.8 348.1 101.1 91c.2.2.2.5 0 .7s-.5.2-.7 0l-101.1-91c-.2-.2-.2-.5 0-.7.2-.1.5-.2.7 0" style="opacity:.68;fill:url(#y)"/><linearGradient id="z" gradientUnits="userSpaceOnUse" x1="17.643" y1="821.456" x2="17.643" y2="820.456" gradientTransform="matrix(.6691 -.7431 -81.0028 -72.9352 66997.938 60479.75)"><stop offset="0" style="stop-color:#000"/><stop offset=".45" style="stop-color:#000"/><stop offset="1" style="stop-color:#000"/></linearGradient><path d="m470.2 553.5 80.3 72.3c.2.2.2.5 0 .7s-.5.2-.7 0l-80.3-72.3c-.2-.2-.2-.5 0-.7s.5-.2.7 0" style="opacity:.46;fill:url(#z)"/><linearGradient id="A" gradientUnits="userSpaceOnUse" x1="17.643" y1="821.241" x2="17.643" y2="820.241" gradientTransform="matrix(.6691 -.7431 -130.7935 -117.767 107927.719 96974.266)"><stop offset="0" style="stop-color:#000"/><stop offset=".45" style="stop-color:#000"/><stop offset="1" style="stop-color:#000"/></linearGradient><path d="m527.3 246.1 130.1 117.1c.2.2.2.5 0 .7s-.5.2-.7 0L526.6 246.8c-.2-.2-.2-.5 0-.7s.5-.2.7 0" style="opacity:.52;fill:url(#A)"/><linearGradient id="B" gradientUnits="userSpaceOnUse" x1="17.643" y1="821.427" x2="17.643" y2="820.427" gradientTransform="matrix(.6691 -.7431 -85.4617 -76.95 70801.945 63651.438)"><stop offset="0" style="stop-color:#000"/><stop offset=".45" style="stop-color:#000"/><stop offset="1" style="stop-color:#000"/></linearGradient><path d="m614 429.5 84.7 76.3c.2.2.2.5 0 .7s-.5.2-.7 0l-84.7-76.3c-.2-.2-.2-.5 0-.7s.5-.2.7 0" style="opacity:.62;fill:url(#B)"/></svg>