<svg version="1.1" id="圖層_1" xmlns="http://www.w3.org/2000/svg" x="0" y="0" viewBox="0 0 895.9 887.4" xml:space="preserve"><style>.st0{fill:#3a4858}.st1{fill:#3b4959}.st2{fill:#384655}.st3{fill:#708ba9}.st4{fill:#738fae}.st5{fill:#6b89b2}.st7{fill:#222a33}.st8{fill:#202831}.st9{fill:#232c35}.st10{fill:#46576a}.st11{fill:#374453}.st12{fill:#586d85}.st13{fill:#f9f7fc}.st14{fill:#1c232b}</style><path class="st0" d="M63.9 96c0-9 .2-18 0-27-.1-4.1 1.3-5.2 5.2-5 7.2.3 14.3-.2 21.5.2 4.6.2 5.7-1.5 5.5-5.7-.3-7 .1-14-.2-21-.2-4 .9-5.7 5.3-5.5 7.3.3 14.7-.1 22 .2 3.7.1 5-1 4.9-4.8-.3-7.2.2-14.3-.2-21.5-.2-4.6 1.2-5.9 5.8-5.9 42.1.2 84.3.1 126.5.1h500.3c7.4 0 7.4 0 7.4 7.2 0 6.7.2 13.3-.1 20-.1 3.7 1 5 4.8 4.9 7.7-.3 15.3 0 23-.1 3.2-.1 4.4 1 4.4 4.3-.2 7.8.1 15.7-.1 23.5-.1 3.3 1.1 4.4 4.3 4.3 7.8-.2 15.7.1 23.5-.1 3.3-.1 4.4 1.1 4.3 4.4-.2 7.7.1 15.3-.1 23-.1 3.8 1.2 4.9 4.9 4.8 7.3-.2 14.7.2 22-.2 4.3-.2 5.4 1.4 5.3 5.5-.3 6.8.2 13.7-.2 20.5-.3 4.7 1 6.5 6 6.2 7.3-.4 14.7 0 22-.1 2.9-.1 4.4.9 4.1 4-.1 1.3 0 2.7 0 4v624.3c0 8.6.8 7.6-7.8 7.7-6.2 0-12.3.3-18.5-.1-4.8-.3-6 1.6-5.7 6 .3 6.8-.1 13.7.2 20.5.2 4.3-.9 5.9-5.5 5.7-8.8-.3-17.7-.1-26.5-.1-2.7-.8-5.5-1.1-8.4-1.1-6.7.1-6.7 0-6.7-6.9 0-.8.1-1.7 0-2.5-.2-3.5 1.5-4.8 4.8-4.6 1.3.1 2.7 0 4 0 5.6-.1 7.1-1.6 7.2-7.1.1-6.3.1-12.6 0-19-.1-4.1 1.3-6.4 5.8-5.9 1.3.1 2.7 0 4 0 4.1 0 6.2-2 6.2-6.1v-22c0-3.8-2-5.9-5.9-5.9-3.7-.1-7.3 0-11 0-.1-2.1-.1-4.3-.2-6.4-.1-18.2-.1-36.4-.2-54.6.1-2 .2-4 .2-6V225c0-19.8-.2-39.6.1-59.4.1-4.5-1.3-5.6-5.6-5.5-8.8.3-17.6.1-26.5.1 0-9.3-.1-18.6.1-27.8.1-3.3-1-4.3-4.2-4.2-9.3.2-18.6.1-27.8.1 0-9.3-.1-18.6.1-27.8.1-3.3-1-4.3-4.2-4.2-9.3.2-18.6.1-27.8.1 0-9.3-.1-18.6.1-27.8.1-3.3-1-4.3-4.2-4.2-9.3.2-18.5.2-27.8.2-1.8-.1-3.7-.2-5.5-.2h-501c-1.8 0-3.7.1-5.5.2-9.3-.1-18.5 0-27.8-.2-3.3-.1-4.3 1-4.2 4.2.2 9.3.1 18.5.1 27.8-9.3 0-18.5.1-27.8-.1-3.1-.1-4.5.8-4.3 4.1.2 3.6 0 7.3-.1 10.9-3 0-6-.2-9 0-4.2.3-6-1.1-5.9-5.6.1-9.8-.9-10.6-10.5-10.4-5.6.1-7.4 1.9-7.4 7.6 0 6.7-.1 13.3 0 20 0 3.2-1.3 4.5-4.5 4.5q-10.5-.15-21 0c-3.5.1-4.6-1.6-4.6-4.9q.15-10.5 0-21c-.3-2.1.1-4-1.4-5.5"/><path class="st1" d="M63.9 96c1.5 1.5 1 3.4 1.1 5.2 0 7 .1 14 0 21 0 3.3 1.1 5 4.6 4.9q10.5-.15 21 0c3.2 0 4.5-1.3 4.5-4.5-.1-6.7-.1-13.3 0-20 0-5.7 1.8-7.4 7.4-7.6 9.6-.2 10.6.6 10.5 10.4 0 4.5 1.7 5.9 5.9 5.6 3-.2 6 0 9 0 .1 5.7.1 11.3.2 17-9.3 0-18.6.1-27.8-.1-3.2-.1-4.3.9-4.3 4.2.2 9.3.1 18.5.1 27.8H71.6c-8.4 0-7.5-.9-7.5 7.4v561c0 1.2.1 2.3 0 3.5-.3 3.1 1 4.1 4 4 9.3-.1 18.6 0 28 0-.1 5.3-.1 10.7-.2 16h-6.5c-10 0-10.1 0-10.3 10-.1 3.2-.9 4.9-4.5 5.1-12 .6-11.8.7-11.6 12.8.1 3.9 1.5 5.3 5.4 5.2 7.1-.2 14.3-.1 21.5 0 1.8 0 3.7-.3 4.8 1.7 3.2 5.9-.5 12.2-7.2 12.2-.8 0-1.7.1-2.5 0-4.7-.6-6.1 1.6-6 6.1.2 9 1.8 17.9 1.1 26.8-4 0-8 0-12 .1-3.1.2-4.1-1.1-4-4.1.1-7.8-.1-15.7.1-23.5.1-3.6-1.2-4.6-4.6-4.5-7.5.2-15-.2-22.5.2-4.1.2-5.2-1.4-5-5.2.2-7.2-.2-14.3.2-21.5.2-4.6-1.5-5.7-5.7-5.5-6.6.3-13.3.1-20 .1-6.6.2-6.6.2-6.6-6.5V136.2c0-9.3-1-8.1 8.4-8.1 6 0 12-.3 18 .1 4.3.2 6-.9 5.7-5.5-.4-7.1.1-14.3-.2-21.5-.1-3.8.9-5.3 5-5.2 9 .3 18 0 27 0"/><path class="st2" d="M80 831.8c.7-9-.9-17.9-1.1-26.8-.1-4.5 1.3-6.6 6-6.1.8.1 1.7 0 2.5 0 6.7 0 10.4-6.3 7.2-12.2-1.1-2-3-1.7-4.8-1.7-7.2 0-14.3-.1-21.5 0-3.8.1-5.3-1.3-5.4-5.2-.2-12.1-.3-12.2 11.6-12.8 3.6-.2 4.4-1.9 4.5-5.1.2-10 .3-10 10.3-10h6.5c.1 4 .3 7.9.1 11.9-.2 3.3 1.1 4.2 4.3 4.2 9.3-.2 18.5-.1 27.8-.1 0 9.3.1 18.6-.1 27.9-.1 3.3 1 4.3 4.2 4.2 9.3-.2 18.6-.1 27.9-.1 0 9.4.1 18.9-.1 28.3 0 2.8.9 3.8 3.7 3.7 9.4-.2 18.9-.1 28.3-.2 1.8.1 3.7.2 5.5.2h456c11.5 0 23 .1 34.5.1v8.5c0 7.3 0 7.3 7.1 7.3h19.5c5.9 0 7.7 1.5 7.3 7.4-.3 5.3 1.4 7 6.7 6.7 5.9-.4 7.4 1.4 7.4 7.3.1 8.8 0 17.7 0 26.5-2.2 0-4.3.1-6.5.1H135.6c-8.6 0-7.6.8-7.7-7.9 0-6.2-.2-12.3.1-18.5.2-4.3-.9-6-5.5-5.7-7.3.4-14.7 0-22 .2-3.4.1-4.8-1-4.7-4.5.2-7.8 0-15.7.1-23.5.1-3-1-4.2-4.1-4.1-3.8.3-7.8.1-11.8 0"/><path class="st1" d="M832 719h11c3.8.1 5.8 2.1 5.9 5.9v22c0 4.1-2.1 6.1-6.2 6.1-1.3 0-2.7.1-4 0-4.5-.5-5.9 1.8-5.8 5.9.1 6.3.1 12.6 0 19-.1 5.6-1.6 7-7.2 7.1-1.3 0-2.7.1-4 0-3.3-.2-5.1 1.1-4.8 4.6.1.8 0 1.7 0 2.5 0 6.9 0 6.9 6.7 6.9 2.9 0 5.6.2 8.4 1.1 0 9.2-.2 18.3 0 27.5.1 3.5-1.1 4.7-4.6 4.6-7.8-.2-15.6 0-23.5-.1-3-.1-4.1 1-4.1 4.1.1 8-.1 16 .1 24 .1 3-1 4.1-4.1 4.1-9.3-.1-18.6 0-28 0-.9-2.9-1.1-5.8-1.1-8.8.1-6.9 1.3-8.2 8.1-8.2 8.6-.1 7.9.9 8-8.1v-1c.5-3.6-1-5.1-4.7-4.9-5.5.2-11 .1-16.4.1-8.6 0-8.6 0-8.8 8.8-.1 5.6-1.6 7-7.1 7.2-8 .2-10.5-1.4-10.8-6.9-.2-3.3 0-6.6 0-10 1.6-1.5 1-3.4 1-5.2.1-9 0-18 0-27 9.4 0 18.9 0 28.3.1 2.6 0 4-.5 3.9-3.5-.2-9.6-.2-19.2-.3-28.8 9.6.1 19.2.1 28.8.3 3 .1 3.5-1.3 3.5-3.9-.1-9.4-.1-18.9-.1-28.3 9.3 0 18.7-.1 28 0 3.1 0 4.1-1 4-4-.4-4.6-.2-8.9-.1-13.2m-17.1 89.2c0-7.2 0-7.2-6.4-7.2-6.6 0-6.6 0-6.6 6.5 0 7.5 0 7.5 6.1 7.5 6.9 0 6.9 0 6.9-6.8M791.8 831c7.1 0 7.1 0 7.1-6.5s0-6.5-6.6-6.5c-7.4 0-7.4 0-7.4 6.3 0 6.6 0 6.6 6.9 6.7"/><path class="st0" d="M734.9 832.1c0 3.3-.1 6.6 0 10 .3 5.5 2.8 7.1 10.8 6.9 5.5-.1 7-1.6 7.1-7.2.2-8.8.2-8.8 8.8-8.8 5.5 0 11 .2 16.4-.1 3.8-.2 5.2 1.3 4.7 4.9v1c0 9 .6 8.1-8 8.1-6.8 0-8 1.3-8.1 8.2 0 3 .1 6 1.1 8.8-.1 5-.1 9.9-.2 14.9h-11c-3.8.1-5.8 2.1-5.9 5.9-.1 3.7 0 7.3 0 11h-15v-26.5c0-5.9-1.5-7.7-7.4-7.3-5.3.3-7-1.4-6.7-6.7.4-5.9-1.4-7.4-7.3-7.4-6.5-.1-13 0-19.5 0-7.1 0-7.1 0-7.1-7.3V832c16 .1 31.6.1 47.3.1"/><path class="st1" d="M750.9 895.8v-11c.1-3.8 2.1-5.8 5.9-5.9h11c0 4.5 0 9 .1 13.5.1 2.6-1 3.6-3.5 3.5-4.5-.1-9 0-13.5-.1"/><path class="st3" d="M192 64.3c1.8-.1 3.7-.2 5.5-.2h501c1.8 0 3.7.1 5.5.2V96c-2.2.1-4.3.2-6.5.2h-403c-2.2 0-4.3.1-6.5.2-4.6-.1-9.3-.1-13.9-.2-27.4-.2-54.8-.2-82.1-.3z"/><path class="st4" d="M799.9 160.1c8.8 0 17.7.2 26.5-.1 4.3-.2 5.7.9 5.6 5.5-.3 19.8-.1 39.6-.1 59.4V652c0 2-.1 4-.2 6h-31.6c-.1-1.3-.2-2.7-.2-4zc0-.1 0 0 0 0"/><path class="st3" d="M800.1 658h31.6c.1 18.2.1 36.4.2 54.6 0 2.1.1 4.3.2 6.4-.1 4.3-.3 8.7-.1 13 .1 3-.9 4.1-4 4-9.3-.1-18.7 0-28 0v.1c0-26.1 0-52.1.1-78.1"/><path class="st5" d="M767.9 128.1c9.3 0 18.6.1 27.8-.1 3.3-.1 4.3 1 4.2 4.2-.2 9.3-.1 18.6-.1 27.8v-.1c-10.7 0-21.4 0-32 .1.1-10.6.1-21.3.1-31.9 0-.1 0 0 0 0m-32-32c9.3 0 18.6.1 27.8-.1 3.3-.1 4.3 1 4.2 4.2-.2 9.3-.1 18.6-.1 27.8l.1-.1c-10.7 0-21.4 0-32.1.1.1-10.6.1-21.3.1-31.9m-607.9 32c-.1-5.7-.1-11.3-.2-17 .1-3.6.3-7.3.1-10.9-.2-3.4 1.2-4.2 4.3-4.1 9.3.2 18.5.1 27.8.1h-.1c0 10.7.1 21.4.1 32.1-10.7-.2-21.4-.2-32-.2"/><path class="st4" d="M703.9 95.9V64.2c9.3-.1 18.5 0 27.8-.2 3.3-.1 4.3 1 4.2 4.2-.2 9.3-.1 18.5-.1 27.8h.1c-10.6 0-21.3 0-32-.1M192 64.3V96c-10.7 0-21.4.1-32 .1h.1c0-9.3.1-18.5-.1-27.8-.1-3.2 1-4.3 4.2-4.2 9.2.2 18.5.1 27.8.2"/><path d="M96 736c-9.3 0-18.7-.1-28 0-3 0-4.4-1-4-4 .1-1.2 0-2.3 0-3.5v-561c0-8.3-.9-7.4 7.5-7.4H96z" style="fill:#647d98"/><path class="st5" d="M96 160.1c0-9.3.1-18.6-.1-27.8-.1-3.3 1-4.3 4.3-4.2 9.3.2 18.5.1 27.8.1l-.1-.1c0 10.7.1 21.4.1 32.1-10.6-.1-21.3-.2-32-.1 0-.1 0 0 0 0m32 607.8c-9.3 0-18.5-.1-27.8.1-3.2.1-4.5-.8-4.3-4.2.2-4 0-7.9-.1-11.9.1-5.3.1-10.7.2-16h32z"/><path class="st3" d="M734.9 832.1h-47c-11.5-.1-23-.1-34.5-.1h-456c-1.8 0-3.7-.1-5.5-.2v-31.7c1.7-.1 3.3-.2 5-.2h539-.1v27c0 1.8.7 3.7-.9 5.2"/><path class="st5" d="M160 799.9c-9.3 0-18.6-.1-27.9.1-3.3.1-4.3-1-4.2-4.2.2-9.3.1-18.6.1-27.9v.1h32z"/><path class="st4" d="M192 800.1v31.7c-9.4.1-18.9 0-28.3.2-2.8.1-3.8-.9-3.7-3.7.1-9.4.1-18.9.1-28.3h-.1c10.6 0 21.3.1 32 .1"/><path class="st5" d="M799.9 735.9c0 9.4 0 18.9.1 28.3 0 2.6-.5 4-3.5 3.9-9.6-.2-19.2-.2-28.8-.3l.1.1v-32q16.05.15 32.1 0"/><path class="st5" d="M767.8 767.8c.1 9.6.1 19.2.3 28.8.1 3-1.3 3.5-3.9 3.5-9.4-.1-18.9-.1-28.3-.1h.1c0-10.7-.1-21.4-.1-32.1 10.6 0 21.3 0 31.9-.1"/><path class="st0" d="M814.9 808.2c0 6.8 0 6.8-6.8 6.8-6.2 0-6.2 0-6.1-7.5 0-6.5 0-6.5 6.6-6.5 6.3 0 6.3 0 6.3 7.2M791.8 831c-6.9 0-6.9 0-6.9-6.7 0-6.3 0-6.3 7.4-6.3 6.6 0 6.6 0 6.6 6.5s0 6.5-7.1 6.5"/><path class="st7" d="M703.9 95.9c10.7 0 21.4.1 32 .1 0 10.7 0 21.4-.1 32.1-21.4 0-42.7.1-64.1.1-2.2 0-4.3-.1-6.5-.1H294.4c-2.2 0-4.3-.1-6.5-.2V96.2c2.2-.1 4.3-.2 6.5-.2h403c2.2.1 4.3 0 6.5-.1"/><path class="st8" d="M288 96.3V128c-2.2.1-4.3.2-6.5.2-29.8 0-59.6.1-89.4.1-10.7 0-21.4-.1-32.1-.1v.1c0-10.7-.1-21.4-.1-32.1 10.7 0 21.4-.1 32-.1 27.4.1 54.7.1 82.1.2 4.7-.2 9.3-.1 14 0"/><path class="st9" d="M799.9 736c-10.7 0-21.4-.1-32.1-.1V468c.3-3-1-4.2-4-4.1-4.3.1-8.7 0-13 0 0-8.3-.2-16.5.1-24.8.2-4.9-1.7-6.6-6.4-6.1-3 .3-5.9-.1-8.8-1V256.1c8.8 0 17.6-.3 26.4.1 4.8.2 5.8-1.5 5.7-6-.2-30.1-.1-60.1-.1-90.2 10.7 0 21.4 0 32-.1v494c0 1.3.1 2.7.2 4 .1 26.1.1 52.1 0 78.1"/><path class="st7" d="M735.9 128.1c10.7 0 21.4 0 32.1-.1 0 10.7 0 21.4-.1 32-9.3 0-18.5-.1-27.8.1-3.2.1-4.3-1.1-4.3-4.3.2-9.2.1-18.5.1-27.7m-607.9 32c0-10.7-.1-21.4-.1-32.1 10.7 0 21.4.1 32.1.1v-.1c0 9.2-.1 18.3.1 27.5.1 3.5-1.1 4.7-4.6 4.6-9.2-.2-18.4 0-27.5 0"/><path class="st7" d="M128 736H96V160c10.7 0 21.4.1 32.1.1l-.1-.1v225.4c0 58.2.1 116.3.1 174.5v64c-.1 37.4-.1 74.7-.1 112.1"/><path class="st8" d="M160 768h-32v-32c9.1 0 18.3.1 27.4-.1 3.5-.1 4.7 1.1 4.6 4.6-.1 9.2 0 18.3 0 27.5m575.9-.1c0 10.7.1 21.4.1 32.1H197c-1.7 0-3.3.1-5 .2-10.7 0-21.4-.1-32-.1v-32c21.3 0 42.6 0 64-.1 1 0 2 .1 3 .1 169.6-.1 339.2-.2 508.9-.2m31.9 0h-32c0-9.1.1-18.3 0-27.4-.1-3.5 1.1-4.7 4.6-4.6 9.1.2 18.3.1 27.4.1z"/><path class="st5" d="M192.1 128.2c29.8 0 59.6-.1 89.4-.1 2.2 0 4.3-.1 6.5-.2 2.2.1 4.3.2 6.5.2h370.8c2.2 0 4.3.1 6.5.1 0 9-.1 18 .2 27 .2 4.1-1.3 5-5.1 5-18.2-.2-36.3 0-54.5-.1-3.5 0-4.6 1.1-4.5 4.5.2 7.2-.2 14.3.2 21.5.3 4.8-1.1 6.2-6 6.1-39-.2-78-.1-116.9-.2-3.7 0-5.3.7-5.2 4.9.3 9 .1 18 .2 27-5.4 0-10.7.1-16.1.1h-80v-25c0-7 0-7-6.9-7-27.9 0-55.9-.1-83.8.1-4.2 0-5.5-1.3-5.3-5.4.3-6.8-.2-13.7.2-20.5.3-4.9-1-6.5-6.2-6.4-28.3.3-56.6.1-84.8.2-3.9 0-5.2-1-5.1-5 0-8.8-.1-17.8-.1-26.8"/><path class="st10" d="M480 223.9c0-9 .2-18-.2-27-.2-4.2 1.5-4.9 5.2-4.9 39 .1 78 0 116.9.2 4.9 0 6.3-1.4 6-6.1-.4-7.1.1-14.3-.2-21.5-.1-3.5 1-4.6 4.5-4.5 18.2.1 36.3 0 54.5.1 3.8 0 5.3-.9 5.1-5-.3-9-.2-18-.2-27 21.4 0 42.7-.1 64.1-.1 0 9.3.1 18.5-.1 27.8-.1 3.2 1.1 4.4 4.3 4.3 9.3-.2 18.5-.1 27.8-.1 0 30.1-.1 60.1.1 90.2 0 4.4-1 6.2-5.7 6-8.8-.4-17.6-.1-26.4-.1l.1.1c0-9.3-.1-18.6 0-27.8.1-3.2-1.1-4.4-4.3-4.3-9.3.2-18.5.1-27.8.1h-81.9c-47.2-.3-94.5-.3-141.8-.4m-287.9-95.7c0 9 .1 18-.2 26.9-.1 4 1.2 5 5.1 5 28.3-.1 56.6.1 84.8-.2 5.2-.1 6.6 1.5 6.2 6.4-.4 6.8.1 13.6-.2 20.5-.2 4.1 1.1 5.4 5.3 5.4 27.9-.2 55.9-.1 83.8-.1 6.9 0 6.9 0 6.9 7v25c-72.6 0-145.3.1-217.9-.1-5 0-6.2 1.2-6.2 6.2.2 113.1.1 226.3.1 339.4 0 2.2-.1 4.3-.2 6.5h-2.5c-4-.1-8.8 1.1-11.7-.7-3.8-2.3-1.1-7.6-1.5-11.6-.3-2.8-1.3-3.8-4-3.7-4 .1-8 0-12 0 0-58.2-.1-116.3-.1-174.5V160.2c9.2 0 18.3-.1 27.5.1 3.5.1 4.6-1.1 4.6-4.6-.2-9.2-.1-18.3-.1-27.5 10.9-.1 21.6-.1 32.3 0"/><path class="st11" d="M767.9 736c-9.1 0-18.3.1-27.4-.1-3.5-.1-4.7 1.1-4.6 4.6.2 9.1.1 18.3 0 27.4H227c-1 0-2 0-3-.1 0-3.3-.1-6.6 0-10 .2-3.6-1.4-5-5-5-6.8-.1-13.5-.6-20.3-.9-3.8-.2-6.6-1.8-6.5-5.9.1-5.7-1.3-11.2-1.1-16.8.4-8.4 1.2-16.8 1.9-25.2 2.3 0 4.7-.1 7-.1 59.3 0 118.6-.1 177.9.1 4.8 0 6.4-1.2 6.2-6.1-.4-8-.2-16-.2-24 .7-2.5 2.8-2 4.5-2 7.5 0 15-.2 22.5.1 3.9.1 5.3-1 5.2-5.1-.3-9-.1-18-.1-27h48l.2-.1c-.1 9.3 0 18.5-.2 27.8-.1 3.2.9 4.5 4.2 4.4 4-.2 7.9 0 11.9.1 0 8.7.2 17.3-.2 26-.2 4.5 1.2 6 5.8 6 33.3-.2 66.7-.2 100 0 5.2 0 6.4-1.5 6.4-6.5-.2-43.8 0-87.6-.2-131.5 0-4.7 1.1-6.3 6.1-6.2 22.8.3 45.7 0 68.5.2 4.4 0 5.8-1.3 5.6-5.7-.3-8.8-.1-17.7-.1-26.5l-.1.1c9.2 0 18.3-.1 27.5.1 3.4.1 4.7-1 4.7-4.6-.2-9.2-.1-18.3-.1-27.5 9.1 0 18.3-.1 27.4 0 3.5.1 4.7-1.1 4.6-4.6-.2-7.8 0-15.6-.1-23.4 0-3 1.1-4.2 4.1-4.1 3.6.1 7.3 0 11 0 4.3 0 8.7.2 13 0 3.1-.1 4.3 1.1 4 4.1v1.5c-.1 88.9-.1 177.7-.1 266.5"/><path class="st12" d="M735.8 256.1V432c-10.6 0-21.2.1-31.8.1 0-10.8-.1-21.6-.1-32.4 0-47.9.1-95.8.1-143.7 10.7 0 21.3.1 31.8.1"/><path class="st7" d="M704 432.1c10.6 0 21.2-.1 31.8-.1 2.9.9 5.8 1.3 8.8 1 4.7-.5 6.6 1.2 6.4 6.1-.3 8.3-.1 16.5-.1 24.8-3.7 0-7.3.2-11 0-3-.1-4.1 1.1-4.1 4.1.1 7.8-.1 15.6.1 23.4.1 3.5-1.2 4.6-4.6 4.6-9.1-.2-18.3-.1-27.4 0 0-10.7-.1-21.4-.1-32.1.1-10.6.2-21.2.2-31.8"/><path class="st2" d="M193 704.1c-.7 8.4-1.6 16.8-1.9 25.2-.2 5.6 1.2 11.2 1.1 16.8-.1 4.1 2.7 5.7 6.5 5.9 6.8.3 13.5.8 20.3.9 3.6.1 5.2 1.4 5 5-.2 3.3 0 6.6 0 10-21.3 0-42.6 0-64 .1 0-9.1-.1-18.3 0-27.4.1-3.5-1.1-4.7-4.6-4.6-9.1.2-18.3.1-27.4.1 0-37.3 0-74.7.1-112h3c3.9.2 8.7-1.5 11.6.7 3.2 2.5 1.1 7.4 1.2 11.3.1 3 1.3 4.1 4.2 4 4-.1 7.9 0 11.9 0l.1-.1c0 9.3 0 18.5-.1 27.8-.1 3.2 1 4.4 4.3 4.3 9.3-.1 18.5 0 27.8.1 0 8.1-.1 16.2 0 24.3 0 2.4-.9 5.2.9 7.6"/><path class="st1" d="M160 640c-4 0-7.9-.1-11.9 0-2.9.1-4.1-1-4.2-4-.2-3.9 1.9-8.8-1.2-11.3-2.9-2.2-7.7-.5-11.6-.7-1-.1-2 0-3 0v-64c4 0 8 .1 12 0 2.7-.1 3.7.9 4 3.7.4 4-2.3 9.3 1.5 11.6 3 1.8 7.8.6 11.7.7h2.5c.1 21.3.2 42.7.2 64"/><path class="st13" d="M704 432.1c-.1 10.6-.2 21.2-.2 31.8-9.3 0-18.6.2-27.8 0-3.3-.1-4.2 1-4.1 4.2.2 9.3.1 18.6.1 27.8-46.1 0-92.3.1-138.4-.1-4.7 0-5.7 1.4-5.6 5.8.3 15.7.1 31.3.1 47v86.5c0 2.4.9 5-3.4 4.9-20.2-.2-40.3-.2-60.5-.2l-.2.1V259.5c0-1.2-.1-2.3-.2-3.5 0-10.7.1-21.4.1-32.1 5.4 0 10.7-.1 16.1-.1 47.3 0 94.6.1 141.9.1h81.9c.1 10.6.1 21.3.2 31.9 0 47.9-.1 95.8-.1 143.7 0 11 .1 21.8.1 32.6M655.7 352v-31.9c0-9.3 0-18.7.2-28 .1-3.3-1-4.2-4.2-4.2q-60 .15-120 0c-3.1 0-4 .9-3.9 3.9q.15 68.25 0 136.5c0 2.8.8 3.8 3.6 3.7 9.5-.2 19-.1 28.5-.2h31.9c20.3.1 40.6.1 61 .2 2.4 0 3.1-.7 3.1-3.1-.1-25.6-.1-51.2-.2-76.9"/><path class="st10" d="M463.9 224.1c0 10.7-.1 21.4-.1 32.1-16 0-31.9 0-47.9-.1-9.3 0-18.6-.2-27.9.1-3.3.1-4.2-1-4.1-4.2.2-9.3.1-18.6.1-27.9z"/><path class="st7" d="M704 256c-.1-10.6-.1-21.3-.2-31.9 9.3 0 18.6.1 27.8-.1 3.2-.1 4.4 1.1 4.3 4.3-.2 9.3 0 18.5 0 27.8-10.6 0-21.2-.1-31.9-.1"/><path class="st13" d="M384 224c0 9.3.1 18.6-.1 27.9-.1 3.2.8 4.3 4.1 4.2 9.3-.2 18.6-.1 27.9-.1.1 10.6.1 21.3.2 31.9 0 2-.1 4-.1 6 0 33.3-.1 66.6.1 99.8 0 5.4-1.6 6.6-6.6 6.4-7.1-.4-14.3.1-21.5-.2-3.4-.1-4.2 1.1-4.1 4.3.2 8-.1 16 .1 24 .1 3.1-1 4-4 3.9-8.1-.2-16.3 0-24.5-.1-2.8-.1-3.8.8-3.7 3.7.2 9.5.1 19 .1 28.5-41.3 0-82.5 0-123.8-.1-2.6 0-4.3 0-4.3 3.6.1 40.3.1 80.6 0 120.8 0 2.8.9 3.7 3.7 3.7 9.5-.2 19-.1 28.5-.2h31.9c20.3.1 40.6.1 60.9.2 2.4 0 3.1-.7 3.1-3.1-.1-20.3-.1-40.6-.2-60.9v-31.9c0-10.7.1-21.4.1-32.1h20c11.8 0 12 0 11.9 11.7 0 3.7 1.2 4.4 4.6 4.3 9.2-.2 18.3-.1 27.5-.1 0 30.2-.1 60.3.1 90.5 0 4.8-1.6 5.8-5.9 5.6-7.5-.3-15-.1-22.5 0-1.3 0-3.5-.8-3.6 1.5-.2 4.5-1.1 9.4.4 13.3 1.1 2.8 6 .7 9.2 1.2q1.5.15 3 0c2.7-.3 3.4 1 3.3 3.5-.1 4.2 0 8.3-.1 12.5-9.5 0-18.9.1-28.4 0-2.8 0-3.7.8-3.7 3.7.1 9.5 0 18.9 0 28.4-69.3 0-138.6-.1-207.8-.1l.2-.2c-.1-21.3-.1-42.6-.2-64 .1-2.2.2-4.3.2-6.5 0-113.1 0-226.3-.1-339.4 0-5 1.2-6.2 6.2-6.2 72.6.2 145.3.1 217.9.1m-96.1 175.9c20.3.1 40.6.1 61 .2 2.4 0 3.1-.7 3.1-3.1-.1-15-.2-30-.2-45v-31.9c0-9.5 0-19 .2-28.4.1-2.8-.8-3.7-3.6-3.7-40.3.1-80.5.1-120.8 0-2.8 0-3.7.8-3.7 3.7.1 34.9.1 69.9 0 104.8 0 2.9.9 3.7 3.7 3.6 9.5-.2 19-.2 28.4-.2z"/><path class="st12" d="M464.1 639.9c20.2 0 40.3 0 60.5.2 4.2 0 3.4-2.6 3.4-4.9v-86.5c0-15.7.1-31.3-.1-47-.1-4.4.9-5.8 5.6-5.8 46.1.2 92.3.1 138.4.1 0 10.7 0 21.3-.1 32l.1-.1c-35.3 0-70.6.2-105.9-.1-5.3 0-6.2 1.6-6.2 6.4.2 44 .1 87.9.3 131.9 0 4.9-1.4 6-6.1 6-24.6-.2-49.3 0-73.9 0-4 0-8-.3-11.9-.1-3.3.2-4.3-1.2-4.2-4.4.1-9.2 0-18.5.1-27.7"/><path class="st9" d="M480 672.1c24.6 0 49.3-.2 73.9 0 4.7 0 6.2-1.1 6.1-6-.2-44-.1-87.9-.3-131.9 0-4.8.9-6.5 6.2-6.4 35.3.2 70.6.1 105.9.1 0 8.8-.2 17.7.1 26.5.2 4.4-1.2 5.7-5.6 5.7-22.8-.2-45.7 0-68.5-.2-4.9-.1-6.1 1.5-6.1 6.2.2 43.8 0 87.6.2 131.5 0 5-1.2 6.5-6.4 6.5-33.3-.2-66.7-.2-100 0-4.7 0-6-1.4-5.8-6 .5-8.6.3-17.3.3-26"/><path class="st14" d="M416.1 288c-.1-10.6-.1-21.3-.2-31.9 16 0 31.9 0 47.9.1.1 1.2.2 2.3.2 3.5v380.4h-48c0-3.5-.2-7 0-10.5.2-4-1.2-5.9-5.4-5.6-3.5.2-7 0-10.5 0-.1-5.3-.1-10.7-.2-16 14.5 0 29-.1 43.5.1 3.3 0 4.6-.7 4.6-4.4q-.15-59.7 0-119.4c0-3.7-1.3-4.5-4.6-4.4-9.2.2-18.3.1-27.5.1 0-14.2.2-28.3-.1-42.5-.1-4.2.8-5.9 5.4-5.7 7.5.4 15 0 22.5.2 3.3.1 4.3-1 4.3-4.2q-.15-67.95 0-135.9c0-3.5-1.5-4.1-4.5-4-9.1.2-18.3.1-27.4.1"/><path class="st7" d="M193 704.1c-1.8-2.4-.9-5.1-.9-7.7-.1-8.1 0-16.2 0-24.3 2.5 0 5-.1 7.5-.1 56.1 0 112.2-.1 168.4-.1.6 2.4 2.6 2.1 4.3 2.1H384c0 8-.2 16 .2 24 .2 4.9-1.4 6.1-6.2 6.1-59.3-.2-118.6-.1-177.9-.1-2.5 0-4.8 0-7.1.1"/><path class="st8" d="M383.9 674h-11.7c-1.7 0-3.7.4-4.3-2.1V640c9.4 0 18.9-.1 28.3.1 2.7 0 3.9-.8 3.8-3.7-.1-4.1.1-8.3.1-12.4 3.5 0 7 .2 10.5 0 4.2-.3 5.7 1.6 5.4 5.6-.2 3.5 0 7 0 10.5 0 9-.2 18 .1 27 .1 4-1.3 5.2-5.2 5.1-7.5-.2-15-.1-22.5-.1-1.8-.1-3.9-.7-4.5 1.9m287.9-146c0-10.7 0-21.3.1-32h32c0 9.2-.1 18.3.1 27.5.1 3.5-1.2 4.6-4.7 4.6-9.2-.2-18.3-.1-27.5-.1"/><path class="st12" d="M703.9 496h-32c0-9.3.1-18.6-.1-27.8-.1-3.2.8-4.3 4.1-4.2 9.3.2 18.6 0 27.8 0 .1 10.6.2 21.3.2 32m-336 144v31.9c-56.1 0-112.2 0-168.4.1-2.5 0-5 .1-7.5.1-9.3 0-18.5-.2-27.8-.1-3.3 0-4.3-1.1-4.3-4.3.2-9.3.1-18.5.1-27.8 69.4 0 138.7 0 207.9.1M560 431.9c-9.5 0-19 0-28.5.2-2.9.1-3.6-.9-3.6-3.7q.15-68.25 0-136.5c0-3.1.9-3.9 3.9-3.9q60 .15 120 0c3.2 0 4.3.8 4.2 4.2-.2 9.3-.2 18.7-.2 28-30.5 0-61-.1-91.4-.2-3 0-4.5.4-4.5 4 .1 35.9.1 71.9.1 107.9"/><path class="st8" d="M560 431.9c0-36 0-71.9-.2-107.9 0-3.6 1.6-4 4.5-4 30.5.1 61 .1 91.4.2v31.9c-19.4 0-38.9.2-58.3-.1-4.4 0-5.6 1.3-5.6 5.7.2 24.8.1 49.5.1 74.3-10.6-.1-21.3-.1-31.9-.1"/><path class="st11" d="M591.9 431.9c0-24.8.1-49.5-.1-74.3 0-4.3 1.2-5.7 5.6-5.7 19.4.2 38.9.1 58.3.1.1 25.7.1 51.3.2 77 0 2.4-.7 3.1-3.1 3.1-20.3-.2-40.6-.2-60.9-.2"/><path class="st12" d="M416.1 288c9.2 0 18.3.1 27.5 0 3 0 4.5.5 4.5 4q-.15 67.95 0 135.9c0 3.3-1 4.3-4.3 4.2-7.5-.2-15 .2-22.5-.2-4.6-.3-5.5 1.4-5.4 5.7.2 14.1.1 28.3.1 42.5-9.2 0-18.3-.1-27.5.1-3.4.1-4.6-.7-4.6-4.3 0-11.7-.1-11.7-11.9-11.7h-20l.1.1c0-9.5.1-19-.1-28.5-.1-2.9.9-3.7 3.7-3.7 8.2.2 16.3-.1 24.5.1 3 .1 4.1-.8 4-3.9-.2-8 .1-16-.1-24-.1-3.2.7-4.4 4.1-4.3 7.1.2 14.3-.2 21.5.2 5 .3 6.7-.9 6.6-6.4-.3-33.3-.1-66.6-.1-99.8-.2-2.1-.2-4-.1-6"/><path class="st12" d="M256.1 591.9c-9.5 0-19 0-28.5.2-2.8.1-3.7-.8-3.7-3.7.1-40.3.1-80.6 0-120.8 0-3.5 1.7-3.6 4.3-3.6 41.3.1 82.5.1 123.8.1l-.1-.1c0 10.7-.1 21.4-.1 32.1-30.6 0-61.3 0-91.9-.2-3 0-4 .9-4 4 .1 30.7.1 61.3.2 92m0-192c-9.5.1-19 0-28.4.2-2.8.1-3.7-.8-3.7-3.6.1-34.9.1-69.9 0-104.8 0-2.8.9-3.7 3.7-3.7 40.3.1 80.5.1 120.8 0 2.9 0 3.7.9 3.6 3.7-.2 9.5-.2 19-.2 28.4-30.5 0-60.9 0-91.4-.2-3.5 0-4.5 1-4.5 4.5.1 25.2 0 50.4.1 75.5"/><path class="st8" d="M256.1 591.9c0-30.6 0-61.3-.2-91.9 0-3 1-4 4-4 30.6.1 61.3.1 91.9.2v31.9c-19.4 0-38.9.2-58.3-.1-4.4 0-5.7 1.2-5.6 5.6.2 19.4.1 38.9.1 58.3-10.7-.1-21.3-.1-31.9 0"/><path class="st12" d="M415.9 480c9.2 0 18.3.1 27.5-.1 3.3-.1 4.6.7 4.6 4.4q-.15 59.7 0 119.4c0 3.7-1.3 4.4-4.6 4.4-14.5-.2-29-.1-43.5-.1 0-4.2-.1-8.3.1-12.5.1-2.5-.6-3.8-3.3-3.5q-1.5.15-3 0c-3.2-.4-8.1 1.7-9.2-1.2-1.5-3.9-.6-8.9-.4-13.3.1-2.3 2.3-1.5 3.6-1.5 7.5-.1 15-.3 22.5 0 4.3.2 5.9-.8 5.9-5.6-.3-30.1-.2-60.2-.2-90.4"/><path class="st14" d="M256.1 399.9c0-25.1 0-50.3-.2-75.4 0-3.5 1-4.5 4.5-4.5 30.5.2 60.9.1 91.4.2v31.9c-19.6 0-39.2.1-58.8 0-3.9 0-5.2 1.1-5.1 5.1.2 14.3.1 28.6 0 42.8-10.6-.1-21.2-.1-31.8-.1"/><path class="st11" d="M287.9 591.8c0-19.4.1-38.9-.1-58.3 0-4.4 1.2-5.7 5.6-5.6 19.4.2 38.9.1 58.3.1 0 20.3.1 40.6.2 60.9 0 2.4-.7 3.1-3.1 3.1-20.2-.1-40.6-.1-60.9-.2m0-191.9c0-14.3.2-28.6 0-42.8-.1-4 1.3-5.1 5.1-5.1 19.6.2 39.2.1 58.8 0 .1 15 .1 30 .2 45 0 2.4-.7 3.1-3.1 3.1-20.3-.2-40.7-.2-61-.2"/><path class="st12" d="M400.1 624c-.1 4.1-.3 8.3-.1 12.4.1 2.9-1 3.7-3.8 3.7-9.4-.1-18.9-.1-28.3-.1 0-9.5.1-18.9 0-28.4 0-2.8.9-3.7 3.7-3.7 9.5.1 18.9.1 28.4 0 0 5.4.1 10.7.1 16.1"/></svg>